<?xml version="1.0" encoding="UTF-8" standalone="no"?>
<!-- Created with Inkscape (http://www.inkscape.org/) -->

<svg
   width="64pt"
   height="64pt"
   viewBox="0 0 22.577778 22.577778"
   version="1.1"
   id="svg831"
   inkscape:version="1.1.2 (b8e25be833, 2022-02-05)"
   sodipodi:docname="Export - Unblash - 64px.svg.2022_11_25_22_15_20.0.svg"
   inkscape:export-filename="E:\Icon Design\TR Icon Design Project\Carlos - Icon Design Project\November\Asli Siap\Flat\14 - Balcony.png"
   inkscape:export-xdpi="576"
   inkscape:export-ydpi="576"
   xmlns:inkscape="http://www.inkscape.org/namespaces/inkscape"
   xmlns:sodipodi="http://sodipodi.sourceforge.net/DTD/sodipodi-0.dtd"
   xmlns="http://www.w3.org/2000/svg"
   xmlns:svg="http://www.w3.org/2000/svg"
   xmlns:rdf="http://www.w3.org/1999/02/22-rdf-syntax-ns#"
   xmlns:cc="http://creativecommons.org/ns#"
   xmlns:dc="http://purl.org/dc/elements/1.1/">
  <defs
     id="defs825">
    <pattern
       id="EMFhbasepattern"
       patternUnits="userSpaceOnUse"
       width="6"
       height="6"
       x="0"
       y="0" />
    <pattern
       id="EMFhbasepattern-9"
       patternUnits="userSpaceOnUse"
       width="6"
       height="6"
       x="0"
       y="0" />
    <pattern
       id="EMFhbasepattern-0"
       patternUnits="userSpaceOnUse"
       width="6"
       height="6"
       x="0"
       y="0" />
    <pattern
       id="EMFhbasepattern-7"
       patternUnits="userSpaceOnUse"
       width="6"
       height="6"
       x="0"
       y="0" />
    <pattern
       id="EMFhbasepattern-2"
       patternUnits="userSpaceOnUse"
       width="6"
       height="6"
       x="0"
       y="0" />
    <pattern
       id="EMFhbasepattern-98"
       patternUnits="userSpaceOnUse"
       width="6"
       height="6"
       x="0"
       y="0" />
    <pattern
       id="EMFhbasepattern-6"
       patternUnits="userSpaceOnUse"
       width="6"
       height="6"
       x="0"
       y="0" />
    <pattern
       id="EMFhbasepattern-01"
       patternUnits="userSpaceOnUse"
       width="6"
       height="6"
       x="0"
       y="0" />
    <pattern
       id="EMFhbasepattern-07"
       patternUnits="userSpaceOnUse"
       width="6"
       height="6"
       x="0"
       y="0" />
    <pattern
       id="EMFhbasepattern-8"
       patternUnits="userSpaceOnUse"
       width="6"
       height="6"
       x="0"
       y="0" />
    <pattern
       id="EMFhbasepattern-4"
       patternUnits="userSpaceOnUse"
       width="6"
       height="6"
       x="0"
       y="0" />
    <pattern
       id="EMFhbasepattern-40"
       patternUnits="userSpaceOnUse"
       width="6"
       height="6"
       x="0"
       y="0" />
    <pattern
       id="EMFhbasepattern-08"
       patternUnits="userSpaceOnUse"
       width="6"
       height="6"
       x="0"
       y="0" />
    <pattern
       id="EMFhbasepattern-04"
       patternUnits="userSpaceOnUse"
       width="6"
       height="6"
       x="0"
       y="0" />
    <pattern
       id="EMFhbasepattern-014"
       patternUnits="userSpaceOnUse"
       width="6"
       height="6"
       x="0"
       y="0" />
    <pattern
       id="EMFhbasepattern-27"
       patternUnits="userSpaceOnUse"
       width="6"
       height="6"
       x="0"
       y="0" />
    <pattern
       id="EMFhbasepattern-09"
       patternUnits="userSpaceOnUse"
       width="6"
       height="6"
       x="0"
       y="0" />
    <pattern
       id="EMFhbasepattern-5"
       patternUnits="userSpaceOnUse"
       width="6"
       height="6"
       x="0"
       y="0" />
    <pattern
       id="EMFhbasepattern-018"
       patternUnits="userSpaceOnUse"
       width="6"
       height="6"
       x="0"
       y="0" />
    <pattern
       id="EMFhbasepattern-3"
       patternUnits="userSpaceOnUse"
       width="6"
       height="6"
       x="0"
       y="0" />
  </defs>
  <sodipodi:namedview
     id="base"
     pagecolor="#ffffff"
     bordercolor="#666666"
     borderopacity="1.0"
     inkscape:pageopacity="0.0"
     inkscape:pageshadow="2"
     inkscape:zoom="5.3085938"
     inkscape:cx="42.666667"
     inkscape:cy="42.57248"
     inkscape:document-units="pt"
     inkscape:current-layer="layer1"
     showgrid="false"
     units="pt"
     inkscape:window-width="958"
     inkscape:window-height="1041"
     inkscape:window-x="-7"
     inkscape:window-y="0"
     inkscape:window-maximized="0"
     inkscape:pagecheckerboard="true"
     inkscape:showpageshadow="false"
     inkscape:object-paths="true"
     inkscape:snap-intersection-paths="true"
     inkscape:snap-smooth-nodes="true"
     inkscape:snap-midpoints="true"
     showguides="true"
     inkscape:snap-bbox="true"
     inkscape:bbox-nodes="true"
     inkscape:snap-nodes="false"
     inkscape:snap-global="true"
     inkscape:snap-others="false">
    <inkscape:grid
       type="xygrid"
       id="grid1378" />
    <sodipodi:guide
       position="0.97013831,21.607643"
       orientation="78.000048,0"
       id="guide1380"
       inkscape:locked="false" />
    <sodipodi:guide
       position="0.97013831,0.97013129"
       orientation="0,78.000005"
       id="guide1382"
       inkscape:locked="false" />
    <sodipodi:guide
       position="21.607639,0.97013129"
       orientation="-78.000048,0"
       id="guide1384"
       inkscape:locked="false" />
    <sodipodi:guide
       position="21.607639,21.607643"
       orientation="0,-78.000005"
       id="guide1386"
       inkscape:locked="false" />
  </sodipodi:namedview>
  <metadata
     id="metadata828">
    <rdf:RDF>
      <cc:Work
         rdf:about="">
        <dc:format>image/svg+xml</dc:format>
        <dc:type
           rdf:resource="http://purl.org/dc/dcmitype/StillImage" />
      </cc:Work>
    </rdf:RDF>
  </metadata>
  <g
     inkscape:label="Icon"
     inkscape:groupmode="layer"
     id="layer1"
     transform="translate(0,-274.42223)">
    <g
       id="g227874"
       style="display:inline;stroke-width:0.794897"
       transform="matrix(1.258024,0,0,1.258024,-76.258071,-275.86285)">
      <path
         id="path4077"
         style="color:#000000;fill:#2f3f4b;stroke-width:0.794897;stroke-linecap:round;stroke-linejoin:round;-inkscape-stroke:none"
         d="m 67.738503,451.68358 c -0.289113,0 -0.52968,0.24006 -0.529683,0.52917 v 2.11718 a 0.2645835,0.2645835 0 0 0 0.265615,0.26407 0.2645835,0.2645835 0 0 0 0.264068,-0.26407 h 0.794784 c 0.145413,-5e-4 0.263049,-0.11814 0.263549,-0.26355 5.79e-4,-0.14618 -0.117369,-0.26512 -0.263549,-0.26562 h -0.794784 v -0.52916 h 0.794784 c 0.145413,-5e-4 0.263049,-0.11814 0.263549,-0.26355 5.74e-4,-0.14617 -0.117374,-0.26512 -0.263549,-0.26562 h -0.794784 v -0.52968 h 0.794784 a 0.2645835,0.2645835 0 0 0 0.263549,-0.26355 0.2645835,0.2645835 0 0 0 -0.263549,-0.26562 z" />
      <path
         id="path278329"
         style="color:#000000;fill:#0d202b;fill-opacity:1;stroke-width:3.00434;stroke-linecap:round;stroke-linejoin:round;-inkscape-stroke:none"
         d="m 256.01953,650.631 h 3.00391 c 0.54923,-0.002 0.99395,-0.44686 0.99609,-0.99609 0.002,-0.55229 -0.4438,-1.00175 -0.99609,-1.00391 l -3.00391,-1.4e-4 c 0,0.66671 0,1.33343 0,2.00014 z m 0,2.00181 v 2 h 3.00391 c 0.54959,-0.002 0.9942,-0.44651 0.99609,-0.99609 0.002,-0.55245 -0.44362,-1.00202 -0.99609,-1.00391 z m 0,4 v 2 h 3.00391 c 0.54959,-0.002 0.9942,-0.44651 0.99609,-0.99609 0.002,-0.55249 -0.4436,-1.00202 -0.99609,-1.00391 z"
         transform="matrix(0.26458334,0,0,0.26458334,0,280.06666)"
         sodipodi:nodetypes="ccsccccccccccccccc" />
      <path
         style="color:#000000;fill:#3a4d5c;stroke-width:0.794897;stroke-linecap:round;stroke-linejoin:round;-inkscape-stroke:none"
         d="m 62.712891,446.65625 a 0.26460996,0.26460996 0 0 0 -0.265625,0.26562 v 2.11719 a 0.26460996,0.26460996 0 0 0 0.265625,0.26367 h 1.05664 a 0.26460996,0.26460996 0 0 0 0.265625,-0.26367 v -2.11719 a 0.26460996,0.26460996 0 0 0 -0.265625,-0.26562 z"
         id="path188695" />
      <path
         style="color:#000000;fill:#3a4d5c;stroke-width:0.794897;stroke-linecap:round;stroke-linejoin:round;-inkscape-stroke:none"
         d="m 75.412109,446.65625 a 0.26460996,0.26460996 0 0 0 -0.265625,0.26562 v 2.11719 a 0.26460996,0.26460996 0 0 0 0.265625,0.26367 h 1.058594 a 0.26460996,0.26460996 0 0 0 0.263672,-0.26367 v -2.11719 a 0.26460996,0.26460996 0 0 0 -0.263672,-0.26562 z"
         id="path188701" />
      <path
         style="color:#000000;fill:#3a4d5c;stroke-width:0.794897;stroke-linecap:round;stroke-linejoin:round;-inkscape-stroke:none"
         d="m 69.0625,446.65625 a 0.26460996,0.26460996 0 0 0 -0.265625,0.26562 v 2.11719 a 0.26460996,0.26460996 0 0 0 0.265625,0.26367 h 1.058594 a 0.26460996,0.26460996 0 0 0 0.263672,-0.26367 v -2.11719 a 0.26460996,0.26460996 0 0 0 -0.263672,-0.26562 z"
         id="path188707" />
      <path
         style="color:#000000;fill:#3a4d5c;stroke-width:0.794897;stroke-linecap:round;stroke-linejoin:round;-inkscape-stroke:none"
         d="m 65.886719,446.65625 a 0.26460996,0.26460996 0 0 0 -0.263672,0.26562 v 2.11719 a 0.26460996,0.26460996 0 0 0 0.263672,0.26367 h 1.058593 a 0.26460996,0.26460996 0 0 0 0.263672,-0.26367 v -2.11719 a 0.26460996,0.26460996 0 0 0 -0.263672,-0.26562 z"
         id="path188713" />
      <path
         style="color:#000000;fill:#3a4d5c;stroke-width:0.794897;stroke-linecap:round;stroke-linejoin:round;-inkscape-stroke:none"
         d="m 72.236328,446.65625 a 0.26460996,0.26460996 0 0 0 -0.263672,0.26562 v 2.11719 a 0.26460996,0.26460996 0 0 0 0.263672,0.26367 h 1.058594 a 0.26460996,0.26460996 0 0 0 0.265625,-0.26367 v -2.11719 a 0.26460996,0.26460996 0 0 0 -0.265625,-0.26562 z"
         id="path188719" />
      <path
         style="color:#000000;fill:#e2f0fa;stroke-width:0.794897;stroke-linecap:round;stroke-linejoin:round;-inkscape-stroke:none"
         d="m 62.183594,438.71875 c -0.435244,0 -0.794922,0.35968 -0.794922,0.79492 v 7.4082 c 0,0.43525 0.359678,0.79297 0.794922,0.79297 H 77 c 0.435244,0 0.792969,-0.35772 0.792969,-0.79297 v -7.4082 c 0,-0.43524 -0.357725,-0.79492 -0.792969,-0.79492 z"
         id="path188725" />
      <path
         id="path260815"
         style="color:#000000;fill:#c8dae5;fill-opacity:1;stroke-width:3.00434;stroke-linecap:round;stroke-linejoin:round;-inkscape-stroke:none"
         d="m 235.02539,599.63086 c -1.64502,0 -3.00586,1.3589 -3.00586,3.00391 v 0.99609 h 55.00391 c 1.64501,0 2.99804,1.3589 2.99804,3.00391 v 26.99609 h 1.00196 c 1.64501,0 2.99804,-1.35106 2.99804,-2.99609 v -28 c 0,-1.64501 -1.35303,-3.00391 -2.99804,-3.00391 z"
         transform="matrix(0.26458334,0,0,0.26458334,0,280.06666)" />
      <path
         style="color:#000000;fill:#e0d5cc;stroke-width:0.794897;stroke-linecap:round;stroke-linejoin:round;-inkscape-stroke:none"
         d="m 70.140625,440.10156 a 0.26460996,0.26460996 0 0 0 -0.335938,0.25586 v 3.38867 a 0.26460996,0.26460996 0 0 0 0.263672,0.26563 h 2.697266 a 0.26460996,0.26460996 0 0 0 0.265625,-0.26563 v -2.64062 a 0.26460996,0.26460996 0 0 0 -0.195313,-0.25586 z"
         id="path188731" />
      <path
         id="path215328"
         style="color:#000000;fill:#cbb7a8;fill-opacity:1;stroke-width:3.00434;stroke-linecap:round;stroke-linejoin:round;-inkscape-stroke:none"
         d="m 266.24609,605.17383 -1.11132,7.66992 a 1.0001006,1.0001006 0 0 0 0.99023,1.14258 h 9.89844 v -5.33594 a 1.0001006,1.0001006 0 0 0 -0.73828,-0.9668 z"
         transform="matrix(0.26458334,0,0,0.26458334,0,280.06666)" />
      <path
         style="color:#000000;fill:#e0d5cc;stroke-width:0.794897;stroke-linecap:round;stroke-linejoin:round;-inkscape-stroke:none"
         d="m 69.029297,440.03125 -2.705078,1 a 0.26460996,0.26460996 0 0 0 -0.171875,0.24805 v 2.46679 a 0.26460996,0.26460996 0 0 0 0.263672,0.26563 h 3.052734 a 0.26460996,0.26460996 0 0 0 0.263672,-0.29102 l -0.347656,-3.46679 a 0.26460996,0.26460996 0 0 0 -0.355469,-0.22266 z"
         id="path188737" />
      <path
         id="path212266"
         style="color:#000000;fill:#cbb7a8;fill-opacity:1;stroke-width:3.00434;stroke-linecap:round;stroke-linejoin:round;-inkscape-stroke:none"
         d="m 259.86719,604.9707 -9.19336,3.39844 a 1.0001006,1.0001006 0 0 0 -0.64844,0.9375 v 4.67969 h 12.22266 a 1.0001006,1.0001006 0 0 0 0.81054,-0.40625 l -0.16211,-1.625 z"
         transform="matrix(0.26458334,0,0,0.26458334,0,280.06666)" />
      <path
         id="path209834"
         style="color:#000000;fill:#cbb7a8;fill-opacity:1;stroke-width:3.00434;stroke-linecap:round;stroke-linejoin:round;-inkscape-stroke:none"
         d="m 257.12109,605.98633 -3.10156,1.14648 v 11.49805 a 1.0001006,1.0001006 0 0 0 1.00391,1.00391 h 7.53515 a 1.0001006,1.0001006 0 0 0 0.9961,-1.09961 l -1.25781,-12.54883 z"
         transform="matrix(0.26458334,0,0,0.26458334,0,280.06666)" />
      <path
         id="path211050"
         style="color:#000000;fill:#cbb7a8;fill-opacity:1;stroke-width:3.00434;stroke-linecap:round;stroke-linejoin:round;-inkscape-stroke:none"
         d="m 263.82812,605.98633 v 12.64453 a 1.0001006,1.0001006 0 0 0 0.99805,1.00391 h 6.19141 a 1.0001006,1.0001006 0 0 0 1.0039,-1.00391 v -11.64063 a 1.0001006,1.0001006 0 0 0 -0.0234,-0.21875 l -2.82617,-0.78515 z"
         transform="matrix(0.26458334,0,0,0.26458334,0,280.06666)" />
      <path
         style="color:#000000;fill:#f0517a;stroke-width:0.794897;stroke-linecap:round;stroke-linejoin:round;-inkscape-stroke:none"
         d="m 71.443359,438.72266 c -0.233089,0 -0.467117,0.10072 -0.623047,0.30078 l -0.30664,0.39453 a 0.26460996,0.26460996 0 0 0 -0.05273,0.125 l -0.310546,2.14258 a 0.26460996,0.26460996 0 0 0 0.261718,0.30273 h 2.871094 c 0.42681,0 0.684247,-0.52469 0.421875,-0.86133 l -1.640625,-2.10351 c -0.15593,-0.20006 -0.388004,-0.30078 -0.621094,-0.30078 z"
         id="path188743" />
      <path
         id="path202231"
         style="fill:#dc1c4b;fill-opacity:1;stroke-width:3.00434;stroke-linecap:round;stroke-linejoin:round"
         d="m 268.79688,599.90234 c -0.42888,0.18925 -0.81952,0.48195 -1.12891,0.87891 l -1.16016,1.49219 a 1.0001006,1.0001006 0 0 0 -0.19922,0.4707 l -1.17382,8.09961 a 1.0001006,1.0001006 0 0 0 0.99023,1.14258 h 4.09375 c 3.11323,-0.18774 4.89785,-3.97808 2.94141,-6.48828 a 2.0111244,2.0111244 0 0 0 0,-0.002 2.0111244,2.0111244 0 0 0 0,-0.002 2.0111244,2.0111244 0 0 0 0,-0.002 2.0111244,2.0111244 0 0 0 0,-0.002 z"
         transform="matrix(0.26458334,0,0,0.26458334,0,280.06666)" />
      <path
         id="path199319"
         style="color:#000000;fill:#dc1c4b;fill-opacity:1;stroke-width:3.00434;stroke-linecap:round;stroke-linejoin:round;-inkscape-stroke:none"
         d="m 270.02148,599.64453 c -0.88096,0 -1.76417,0.38059 -2.35351,1.13672 l -0.87305,1.12305 c 0.38872,-0.17193 0.80724,-0.25977 1.22656,-0.25977 0.88097,0 1.75832,0.38059 2.34766,1.13672 l 6.20117,7.95117 c 0.29529,0.37887 0.41464,0.82012 0.39649,1.25391 h 0.01 c 1.61314,0 2.58539,-1.98157 1.59375,-3.25391 l -6.20117,-7.95117 c -0.58934,-0.75613 -1.46669,-1.13672 -2.34766,-1.13672 z"
         transform="matrix(0.26458334,0,0,0.26458334,0,280.06666)" />
      <path
         style="color:#000000;fill:#f0517a;stroke-width:0.794897;stroke-linecap:round;stroke-linejoin:round;-inkscape-stroke:none"
         d="m 67.738281,438.72266 c -0.23309,0 -0.467117,0.10072 -0.623047,0.30078 l -1.638672,2.10351 c -0.262371,0.33664 -0.0049,0.86133 0.421875,0.86133 h 3.488282 a 0.26460996,0.26460996 0 0 0 0.24414,-0.36914 l -0.929687,-2.14453 a 0.26460996,0.26460996 0 0 0 -0.0332,-0.0566 l -0.308594,-0.39453 c -0.155929,-0.20006 -0.388004,-0.30078 -0.621094,-0.30078 z"
         id="path188749" />
      <path
         id="path202233"
         style="color:#000000;fill:#dc1c4b;fill-opacity:1;stroke-width:0.794897;stroke-linecap:round;stroke-linejoin:round;-inkscape-stroke:none"
         d="m 68.06303,438.79186 -1.152901,1.4795 c -0.5168,0.66308 -0.04772,1.66673 0.775663,1.71669 h 1.700673 a 0.26460996,0.26460996 0 0 0 0.24443,-0.36897 l -0.929661,-2.14457 a 0.26460996,0.26460996 0 0 0 -0.03307,-0.0563 l -0.309025,-0.39481 c -0.08152,-0.10459 -0.183695,-0.18142 -0.296106,-0.23151 z" />
      <path
         id="path192447"
         style="color:#000000;fill:#dc1c4b;fill-opacity:1;stroke-width:3.00434;stroke-linecap:round;stroke-linejoin:round;-inkscape-stroke:none"
         d="m 256.01953,599.64453 c -0.88097,0 -1.76613,0.38059 -2.35547,1.13672 l -0.875,1.12305 c 0.38918,-0.17242 0.81055,-0.25977 1.23047,-0.25977 0.88097,0 1.75637,0.38059 2.3457,1.13672 l 1.16797,1.49219 a 1.0001006,1.0001006 0 0 1 0.125,0.21289 l 3.25196,7.5 h 1.33789 a 1.0001006,1.0001006 0 0 0 0.92383,-1.39453 l -3.51368,-8.10547 a 1.0001006,1.0001006 0 0 0 -0.125,-0.21289 l -1.16797,-1.49219 c -0.58933,-0.75613 -1.46473,-1.13672 -2.3457,-1.13672 z"
         transform="matrix(0.26458334,0,0,0.26458334,0,280.06666)" />
      <path
         style="color:#000000;fill:#4f697d;stroke-width:0.794897;stroke-linecap:round;stroke-linejoin:round;-inkscape-stroke:none"
         d="m 67.767574,450.74415 0.5,1.00195 v 2.58399 c 5.18e-4,0.14617 0.119455,0.26423 0.265625,0.26367 h 2.117188 c 0.145407,-5.2e-4 0.263155,-0.11826 0.263671,-0.26367 v -2.58399 l 0.501954,-1.00195 z"
         id="path188755"
         sodipodi:nodetypes="ccccccccc" />
      <path
         id="path276362"
         style="color:#000000;fill:#3a4d5c;fill-opacity:1;stroke-width:3.00434;stroke-linecap:round;stroke-linejoin:round;-inkscape-stroke:none"
         d="m 267.91797,645.08008 -1.89649,3.78711 v 9.76562 c -10e-4,0.54998 -0.44612,0.99585 -0.99609,0.99805 h 2 c 0.54997,-0.002 0.99497,-0.44807 0.99609,-0.99805 v -9.76562 l 1.89649,-3.78711 z"
         transform="matrix(0.26458334,0,0,0.26458334,0,280.06666)"
         sodipodi:nodetypes="ccccccccc" />
      <path
         id="path270781"
         style="color:#000000;fill:#3a4d5c;fill-opacity:1;stroke-width:3.00434;stroke-linecap:round;stroke-linejoin:round;-inkscape-stroke:none"
         d="m 256.12891,645.08008 1.27539,2.55469 h 11.23437 l 1.2793,-2.55469 z"
         transform="matrix(0.26458334,0,0,0.26458334,0,280.06666)"
         sodipodi:nodetypes="ccccc" />
      <path
         style="color:#000000;fill:#4f697d;stroke-width:0.794897;stroke-linecap:round;stroke-linejoin:round;-inkscape-stroke:none"
         d="m 66.945312,449.30273 c -0.289119,0 -0.529296,0.24018 -0.529296,0.5293 v 0.5293 c 0,0.28911 0.240177,0.52929 0.529296,0.52929 h 5.291016 c 0.289119,0 0.529293,-0.24018 0.529297,-0.52929 v -0.5293 c -4e-6,-0.28911 -0.240178,-0.5293 -0.529297,-0.5293 z"
         id="path188761" />
      <path
         id="path265548"
         style="color:#000000;fill:#3a4d5c;fill-opacity:1;stroke-width:3.00434;stroke-linecap:round;stroke-linejoin:round;-inkscape-stroke:none"
         d="m 271.01953,639.63281 c 1.09273,0 1.99999,0.9073 2,2 v 2 c -10e-6,1.0927 -0.90727,2.00196 -2,2.00196 h 2 c 1.09273,0 1.99999,-0.90926 2,-2.00196 v -2 c -10e-6,-1.0927 -0.90727,-2 -2,-2 z"
         transform="matrix(0.26458334,0,0,0.26458334,0,280.06666)" />
      <path
         style="color:#000000;fill:#e2f0fa;stroke-width:0.794897;stroke-linecap:round;stroke-linejoin:round;-inkscape-stroke:none"
         d="m 61.917969,448.24414 c -0.289119,0 -0.529297,0.24018 -0.529297,0.5293 v 0.52929 c 0,0.28912 0.240178,0.5293 0.529297,0.5293 h 15.345703 c 0.289119,0 0.529293,-0.24018 0.529297,-0.5293 v -0.52929 c -4e-6,-0.28912 -0.240178,-0.5293 -0.529297,-0.5293 z"
         id="path188767" />
      <path
         style="color:#000000;fill:#fec872;stroke-width:0.794897;stroke-linecap:round;stroke-linejoin:round;-inkscape-stroke:none"
         d="m 74.091772,443.36586 c -0.378737,0.65611 -0.757755,1.31206 -1.136695,1.96805 -0.1199,0.20495 0.06995,0.45188 0.298828,0.38868 l 0.466797,-0.125 0.125,0.46679 c 0.0609,0.22737 0.366095,0.26801 0.484375,0.0645 0.445656,-0.7725 0.891431,-1.54493 1.337346,-2.31728 z"
         id="path188773"
         sodipodi:nodetypes="cccscccc" />
      <path
         id="path221306"
         style="color:#000000;fill:#fdb721;fill-opacity:1;stroke-width:3.00434;stroke-linecap:round;stroke-linejoin:round;-inkscape-stroke:none"
         d="m 280.03125,617.19336 c -0.6757,1.17055 -1.35132,2.34135 -2.02734,3.51172 1.30345,1.29443 3.0898,2.08113 5.01757,2.03711 0.2528,0.006 0.50285,-0.003 0.75,-0.0254 0.73835,-1.27931 1.47631,-2.5587 2.21485,-3.83789 z"
         transform="matrix(0.26458334,0,0,0.26458334,0,280.06666)" />
      <path
         style="color:#000000;fill:#fec872;stroke-width:0.794897;stroke-linecap:round;stroke-linejoin:round;-inkscape-stroke:none"
         d="m 74.482422,442.85547 a 0.26460996,0.26460996 0 0 0 -0.128906,0.27344 c 0,0 0.06184,0.37264 0.126953,0.7539 0.03256,0.19063 0.06564,0.38328 0.0918,0.53321 0.01308,0.075 0.02446,0.13916 0.0332,0.1875 0.0087,0.0483 0.0098,0.0597 0.02148,0.10546 a 0.26460996,0.26460996 0 0 0 0.02734,0.0664 l 0.78125,1.35352 a 0.26460996,0.26460996 0 0 0 0.484375,-0.0645 l 0.125,-0.46679 0.466797,0.125 a 0.26460996,0.26460996 0 0 0 0.298828,-0.38868 l -0.828125,-1.43359 a 0.26460996,0.26460996 0 0 0 -0.06055,-0.0703 l -1.138672,-0.94922 a 0.26460996,0.26460996 0 0 0 -0.300781,-0.0254 z"
         id="path188779" />
      <path
         id="path221185"
         style="fill:#fdb721;fill-opacity:1;stroke-width:3.00434;stroke-linecap:round;stroke-linejoin:round"
         d="m 279.98956,621.41238 2.28189,1.30447 c 0.24715,0.0221 0.49722,0.0312 0.75,0.0254 1.92793,0.0443 3.71416,-0.74259 5.01758,-2.03711 l -0.86133,-1.49024 c -0.0598,-0.10199 -0.13713,-0.19259 -0.22851,-0.26757 l -4.30469,-3.58594 z"
         transform="matrix(0.26458334,0,0,0.26458334,0,280.06666)"
         sodipodi:nodetypes="cccccccc" />
      <path
         id="path253099"
         style="color:#000000;fill:#fdb721;fill-opacity:1;stroke-width:3.00434;stroke-linecap:round;stroke-linejoin:round;-inkscape-stroke:none"
         d="m 280.03125,617.19336 c -0.0936,0.16218 -0.18763,0.32416 -0.28125,0.48633 l 4.23633,1.19922 c -1.63169,2.82617 -3.26377,5.6518 -4.89453,8.47851 l 0.01,0.0352 c 0.23018,0.85935 1.38304,1.01331 1.83008,0.24414 1.68437,-2.91969 3.36934,-5.8387 5.05469,-8.75781 z"
         transform="matrix(0.26458334,0,0,0.26458334,0,280.06666)"
         sodipodi:nodetypes="cccccccc" />
      <path
         id="path251149"
         style="color:#000000;fill:#fdb721;fill-opacity:1;stroke-width:3.00434;stroke-linecap:round;stroke-linejoin:round;-inkscape-stroke:none"
         d="m 285.17773,619.21489 3.12891,5.41797 c 0.22595,0.38567 0.16854,0.87445 -0.14062,1.19727 l 1.01171,0.27148 c 0.86461,0.23796 1.58128,-0.69446 1.12891,-1.46875 l -3.12891,-5.41797 z m 0.36892,5.91779 -0.59548,2.22474 0.16016,0.2793 c 0.44744,0.7681 1.59964,0.61439 1.83008,-0.24414 l 0.47243,-1.76381 z"
         transform="matrix(0.26458334,0,0,0.26458334,0,280.06666)"
         sodipodi:nodetypes="ccccccccccccc" />
      <path
         style="color:#000000;fill:#4895ef;stroke-width:0.794897;stroke-linecap:round;stroke-linejoin:round;-inkscape-stroke:none"
         d="m 74.882812,441.49805 c -0.357071,-10e-4 -0.70532,0.16195 -0.978515,0.41797 -0.273657,0.25645 -0.476561,0.62089 -0.476563,1.0371 -9e-6,0.8104 0.686908,1.4749 1.455078,1.45118 0.768193,0.0238 1.455088,-0.64078 1.455079,-1.45118 -2e-6,-0.41621 -0.202906,-0.78065 -0.476563,-1.0371 -0.273195,-0.25602 -0.621444,-0.4194 -0.978516,-0.41797 z"
         id="path188785" />
      <path
         style="color:#000000;fill:#e2f0fa;stroke-width:0.794897;stroke-linecap:round;stroke-linejoin:round;-inkscape-stroke:none"
         d="m 74.75,442.6875 a 0.2645835,0.2645835 0 0 0 -0.263672,0.26562 0.2645835,0.2645835 0 0 0 0.263672,0.26368 h 0.265625 a 0.2645835,0.2645835 0 0 0 0.263672,-0.26368 0.2645835,0.2645835 0 0 0 -0.263672,-0.26562 z"
         id="path4095" />
      <path
         style="color:#000000;fill:#e0d5cc;stroke-width:0.794897;stroke-linecap:round;stroke-linejoin:round;-inkscape-stroke:none"
         d="m 68.003906,440.40039 a 0.26460996,0.26460996 0 0 0 -0.265625,0.26563 v 3.08007 a 0.26460996,0.26460996 0 0 0 0.265625,0.26563 h 3.173828 a 0.26460996,0.26460996 0 0 0 0.265625,-0.26563 v -3.08007 a 0.26460996,0.26460996 0 0 0 -0.265625,-0.26563 z"
         id="path188795" />
      <path
         id="path204822"
         style="color:#000000;fill:#cbb7a8;fill-opacity:1;stroke-width:3.00434;stroke-linecap:round;stroke-linejoin:round;-inkscape-stroke:none"
         d="m 257.02344,605.98633 a 1.0001006,1.0001006 0 0 0 -1.00391,1.0039 v 5.00391 c 0.0143,1.5e-4 0.0286,0 0.043,0 h 13.91602 c 0.0145,0 0.0285,1.6e-4 0.043,0 v -5.00391 a 1.0001006,1.0001006 0 0 0 -1.0039,-1.0039 z"
         transform="matrix(0.26458334,0,0,0.26458334,0,280.06666)" />
      <path
         style="color:#000000;fill:#f0517a;stroke-width:0.794897;stroke-linecap:round;stroke-linejoin:round;-inkscape-stroke:none"
         d="m 69.591797,438.19336 c -0.23309,0 -0.467117,0.10072 -0.623047,0.30078 l -1.638672,2.10352 c -0.262369,0.33663 -0.0069,0.86131 0.419922,0.86132 h 3.681641 c 0.426797,-10e-6 0.684244,-0.52469 0.421875,-0.86132 l -1.640625,-2.10352 c -0.155931,-0.20006 -0.388005,-0.30078 -0.621094,-0.30078 z"
         id="path188801" />
      <path
         style="color:#000000;fill:#9a605a;stroke-width:0.794897;stroke-linecap:round;stroke-linejoin:round;-inkscape-stroke:none"
         d="m 70.384766,443.74609 v -1.32226 c -2e-6,-0.28912 -0.24019,-0.5293 -0.529297,-0.5293 h -0.529297 c -0.289107,0 -0.529293,0.24018 -0.529297,0.5293 v 1.32226 z"
         id="path188807"
         sodipodi:nodetypes="csssscc" />
      <path
         style="color:#000000;fill:#e0d5cc;stroke-width:0.794897;stroke-linecap:round;stroke-linejoin:round;-inkscape-stroke:none"
         d="m 66.152344,443.48242 a 0.2645835,0.2645835 0 0 0 -0.265625,0.26367 0.2645835,0.2645835 0 0 0 0.265625,0.26563 h 6.878906 a 0.2645835,0.2645835 0 0 0 0.263672,-0.26563 0.2645835,0.2645835 0 0 0 -0.263672,-0.26367 z"
         id="path4111" />
      <path
         style="color:#000000;fill:#4f697d;stroke-width:0.794897;stroke-linecap:round;stroke-linejoin:round;-inkscape-stroke:none"
         d="m 62.712891,439.77734 a 0.2645835,0.2645835 0 0 0 -0.265625,0.26563 0.2645835,0.2645835 0 0 0 0.265625,0.26367 h 2.380859 a 0.2645835,0.2645835 0 0 0 0.263672,-0.26367 0.2645835,0.2645835 0 0 0 -0.263672,-0.26563 z"
         id="path4115" />
      <path
         style="color:#000000;fill:#4f697d;stroke-width:0.794897;stroke-linecap:round;stroke-linejoin:round;-inkscape-stroke:none"
         d="m 62.712891,440.83594 a 0.2645835,0.2645835 0 0 0 -0.265625,0.26562 0.2645835,0.2645835 0 0 0 0.265625,0.26367 h 1.851562 a 0.2645835,0.2645835 0 0 0 0.263672,-0.26367 0.2645835,0.2645835 0 0 0 -0.263672,-0.26562 z"
         id="path4117" />
      <path
         style="color:#000000;display:inline;fill:#f0517a;fill-opacity:1;stroke-width:0.794897;stroke-linecap:round;stroke-linejoin:round;-inkscape-stroke:none"
         d="m 62.712557,441.89454 c -0.146942,-5.8e-4 -0.266208,0.11868 -0.265625,0.26563 5.03e-4,0.14617 0.119449,0.26424 0.265625,0.26367 0.145413,-5e-4 0.26317,-0.11826 0.263672,-0.26367 5.79e-4,-0.14618 -0.117494,-0.26513 -0.263672,-0.26563 z"
         id="path4119" />
      <path
         style="color:#000000;fill:#f0517a;stroke-width:0.794897;stroke-linecap:round;stroke-linejoin:round;-inkscape-stroke:none"
         d="m 63.769531,441.89453 a 0.2645835,0.2645835 0 0 0 -0.263672,0.26563 0.2645835,0.2645835 0 0 0 0.263672,0.26367 h 0.794922 a 0.2645835,0.2645835 0 0 0 0.263672,-0.26367 0.2645835,0.2645835 0 0 0 -0.263672,-0.26563 z"
         id="path4121" />
      <path
         style="color:#000000;display:inline;fill:#f0517a;fill-opacity:1;stroke-width:0.794897;stroke-linecap:round;stroke-linejoin:round;-inkscape-stroke:none"
         d="m 64.565163,442.953 c -0.146942,-5.8e-4 -0.266207,0.11868 -0.265625,0.26563 5.04e-4,0.14617 0.119449,0.26424 0.265625,0.26367 0.145414,-5e-4 0.263171,-0.11826 0.263672,-0.26367 5.79e-4,-0.14618 -0.117493,-0.26513 -0.263672,-0.26563 z"
         id="path4123" />
      <path
         style="color:#000000;fill:#f0517a;stroke-width:0.794897;stroke-linecap:round;stroke-linejoin:round;-inkscape-stroke:none"
         d="m 62.712891,442.95312 a 0.2645835,0.2645835 0 0 0 -0.265625,0.26368 0.2645835,0.2645835 0 0 0 0.265625,0.26562 h 0.792968 a 0.2645835,0.2645835 0 0 0 0.263672,-0.26562 0.2645835,0.2645835 0 0 0 -0.263672,-0.26368 z"
         id="path4125" />
      <path
         style="color:#000000;fill:#4f697d;stroke-width:0.794897;stroke-linecap:round;stroke-linejoin:round;-inkscape-stroke:none"
         d="m 62.712891,444.01172 a 0.2645835,0.2645835 0 0 0 -0.265625,0.26367 0.2645835,0.2645835 0 0 0 0.265625,0.26563 h 2.380859 a 0.2645835,0.2645835 0 0 0 0.263672,-0.26563 0.2645835,0.2645835 0 0 0 -0.263672,-0.26367 z"
         id="path4127" />
      <path
         style="color:#000000;fill:#4f697d;stroke-width:0.794897;stroke-linecap:round;stroke-linejoin:round;-inkscape-stroke:none"
         d="m 70.650391,445.07031 a 0.2645835,0.2645835 0 0 0 -0.265625,0.26367 0.2645835,0.2645835 0 0 0 0.265625,0.26563 h 1.585937 a 0.2645835,0.2645835 0 0 0 0.265625,-0.26563 0.2645835,0.2645835 0 0 0 -0.265625,-0.26367 z"
         id="path188933" />
      <path
         style="color:#000000;fill:#4f697d;stroke-width:0.794897;stroke-linecap:round;stroke-linejoin:round;-inkscape-stroke:none"
         d="m 66.945312,445.07031 a 0.2645835,0.2645835 0 0 0 -0.263671,0.26367 0.2645835,0.2645835 0 0 0 0.263671,0.26563 h 2.646485 a 0.2645835,0.2645835 0 0 0 0.263672,-0.26563 0.2645835,0.2645835 0 0 0 -0.263672,-0.26367 z"
         id="path4129" />
      <path
         style="color:#000000;fill:#4f697d;stroke-width:0.794897;stroke-linecap:round;stroke-linejoin:round;-inkscape-stroke:none"
         d="m 68.525391,446.12891 a 0.2645835,0.2645835 0 0 0 -0.265625,0.26367 0.2645835,0.2645835 0 0 0 0.265625,0.26367 h 3.710937 a 0.2645835,0.2645835 0 0 0 0.265625,-0.26367 0.2645835,0.2645835 0 0 0 -0.265625,-0.26367 z"
         id="path188937" />
      <path
         style="color:#000000;fill:#4f697d;stroke-width:0.794897;stroke-linecap:round;stroke-linejoin:round;-inkscape-stroke:none"
         d="m 66.945312,446.12891 a 0.2645835,0.2645835 0 0 0 -0.263671,0.26367 0.2645835,0.2645835 0 0 0 0.263671,0.26367 h 0.529297 a 0.2645835,0.2645835 0 0 0 0.263672,-0.26367 0.2645835,0.2645835 0 0 0 -0.263672,-0.26367 z"
         id="path4131" />
      <path
         style="color:#000000;fill:#4895ef;stroke-width:0.794897;stroke-linecap:round;stroke-linejoin:round;-inkscape-stroke:none"
         d="m 62.976562,445.07031 c -0.289113,0 -0.529293,0.24019 -0.529296,0.5293 v 0.5293 c 3e-6,0.28911 0.240183,0.52734 0.529296,0.52734 h 0.529297 c 0.289114,0 0.529294,-0.23823 0.529297,-0.52734 v -0.5293 c -3e-6,-0.28911 -0.240183,-0.5293 -0.529297,-0.5293 z"
         id="path188849" />
      <path
         style="color:#000000;fill:#4895ef;stroke-width:0.794897;stroke-linecap:round;stroke-linejoin:round;-inkscape-stroke:none"
         d="m 65.09375,445.07031 c -0.289114,0 -0.529293,0.24019 -0.529297,0.5293 v 0.5293 c 4e-6,0.28911 0.240183,0.52734 0.529297,0.52734 h 0.529297 c 0.289114,0 0.529293,-0.23823 0.529297,-0.52734 v -0.5293 c -4e-6,-0.28911 -0.240183,-0.5293 -0.529297,-0.5293 z"
         id="path188855" />
      <path
         style="color:#000000;fill:#4f697d;stroke-width:0.794897;stroke-linecap:round;stroke-linejoin:round;-inkscape-stroke:none"
         d="m 73.824219,439.77734 a 0.2645835,0.2645835 0 0 0 -0.263672,0.26563 0.2645835,0.2645835 0 0 0 0.263672,0.26367 h 2.646484 a 0.2645835,0.2645835 0 0 0 0.263672,-0.26367 0.2645835,0.2645835 0 0 0 -0.263672,-0.26563 z"
         id="path4147" />
      <path
         style="color:#000000;fill:#4f697d;stroke-width:0.794897;stroke-linecap:round;stroke-linejoin:round;-inkscape-stroke:none"
         d="m 75.941406,440.83594 a 0.2645835,0.2645835 0 0 0 -0.265625,0.26562 0.2645835,0.2645835 0 0 0 0.265625,0.26367 h 0.529297 a 0.2645835,0.2645835 0 0 0 0.263672,-0.26367 0.2645835,0.2645835 0 0 0 -0.263672,-0.26562 z"
         id="path4149" />
      <path
         id="path224614"
         style="color:#000000;fill:#1e7eeb;fill-opacity:1;stroke-width:3.00434;stroke-linecap:round;stroke-linejoin:round;-inkscape-stroke:none"
         d="m 283.02148,610.13477 c -1.34956,-0.004 -2.66471,0.61244 -3.69726,1.58007 -0.38555,0.36131 -0.73417,0.77846 -1.01953,1.24219 0.83069,-0.5196 1.76518,-0.82493 2.71679,-0.82226 1.34957,-0.005 2.66668,0.61244 3.69922,1.58007 1.0343,0.96926 1.80078,2.34685 1.80078,3.91993 2e-5,1.00751 -0.28137,1.95426 -0.76171,2.76953 1.61781,-0.94787 2.76174,-2.73682 2.76171,-4.76953 0,-1.57308 -0.76648,-2.95067 -1.80078,-3.91993 -1.03254,-0.96763 -2.34965,-1.58548 -3.69922,-1.58007 z"
         transform="matrix(0.26458334,0,0,0.26458334,0,280.06666)" />
      <path
         id="path258227"
         style="color:#000000;fill:#1e7eeb;fill-opacity:1;stroke-width:3.00434;stroke-linecap:round;stroke-linejoin:round;-inkscape-stroke:none"
         d="m 237.9707,623.63672 c -1.06977,0.0278 -1.9492,0.92437 -1.94922,2 h 2 c 1.09272,0 2.00195,0.9073 2.00196,2 v 1.99414 c 1.09183,-10e-4 1.99999,-0.9021 2,-1.99414 v -2 c -1e-5,-1.0927 -0.90924,-2 -2.00196,-2 h -2 c -0.0171,0 -0.0338,-4.4e-4 -0.0508,0 z"
         transform="matrix(0.26458334,0,0,0.26458334,0,280.06666)" />
      <path
         id="path259677"
         style="color:#000000;fill:#1e7eeb;fill-opacity:1;stroke-width:3.00434;stroke-linecap:round;stroke-linejoin:round;-inkscape-stroke:none"
         d="m 245.97266,623.63672 c -1.06978,0.0278 -1.94921,0.92437 -1.94922,2 h 2 c 1.09271,0 2.00194,0.9073 2.00195,2 v 1.99414 c 1.09184,-10e-4 1.99999,-0.9021 2,-1.99414 v -2 c -10e-6,-1.0927 -0.90924,-2 -2.00195,-2 h -2 c -0.0171,0 -0.0338,-4.4e-4 -0.0508,0 z"
         transform="matrix(0.26458334,0,0,0.26458334,0,280.06666)" />
      <path
         id="path264098"
         style="color:#000000;fill:#c8dae5;fill-opacity:1;stroke-width:3.00434;stroke-linecap:round;stroke-linejoin:round;-inkscape-stroke:none"
         d="m 290.01958,637.63086 c 1.09273,0 2.00194,0.90922 2.00195,2.00195 v 2 c 1.09186,-10e-4 1.99999,-0.90792 2,-2 v -2 c -10e-6,-1.09273 -0.90922,-2.00195 -2.00195,-2.00195 h -57.9981 c -1.09207,0 -2.00086,0.90814 -2.00095,2 z"
         transform="matrix(0.26458334,0,0,0.26458334,0,280.06666)"
         sodipodi:nodetypes="sscsssscs" />
    </g>
  </g>
</svg>
