<?xml version="1.0" ?><svg xmlns="http://www.w3.org/2000/svg" xmlns:xlink="http://www.w3.org/1999/xlink" version="1.1" id="Layer_1" viewBox="0 0 100 100" style="enable-background:new 0 0 100 100;" xml:space="preserve"><style type="text/css">
	.st0{clip-path:url(#SVGID_2_);}
	.st1{fill:#99CF8C;}
	.st2{clip-path:url(#SVGID_4_);}
	.st3{fill:#71BE71;}
	.st4{clip-path:url(#SVGID_6_);}
	.st5{fill:#ECEFF0;}
	.st6{clip-path:url(#SVGID_8_);}
	.st7{fill:#D0D8DC;}
	.st8{clip-path:url(#SVGID_10_);}
	.st9{fill:#CBEAFB;}
	.st10{clip-path:url(#SVGID_12_);}
	.st11{fill:#B6D3E0;}
	.st12{clip-path:url(#SVGID_14_);}
	.st13{clip-path:url(#SVGID_16_);}
	.st14{fill:#57A7DB;}
	.st15{clip-path:url(#SVGID_18_);}
	.st16{fill:#FDD7AD;}
	.st17{clip-path:url(#SVGID_20_);}
	.st18{fill:#F7C9A9;}
	.st19{clip-path:url(#SVGID_22_);}
	.st20{fill:#79B9E2;}
	.st21{clip-path:url(#SVGID_24_);}
	.st22{clip-path:url(#SVGID_26_);}
	.st23{clip-path:url(#SVGID_28_);}
	.st24{clip-path:url(#SVGID_30_);}
	.st25{fill:#F4AE7A;}
	.st26{fill:#ED975D;}
	.st27{fill:#FFFFFF;}
	.st28{fill:#FC6142;}
	.st29{fill:#81C784;}
	.st30{fill:#FCD156;}
	.st31{fill:#90A4AE;}
</style><g><g><g><defs><rect id="SVGID_1_" x="61.8" y="24.4" width="16.6" height="17.9"/></defs><clipPath id="SVGID_2_"><use xlink:href="#SVGID_1_" style="overflow:visible;"/></clipPath><g class="st0"><path class="st1" d="M72.4,30.7l-0.2,6.9l-0.4,11.8c-0.4,0-0.9-0.1-1.3-0.2c-0.3-0.1-0.5-0.1-0.8-0.2l-0.4-11.4l-0.2-6.9      L72.4,30.7L72.4,30.7z"/></g></g><g><defs><rect id="SVGID_3_" x="61.8" y="24.4" width="16.6" height="17.9"/></defs><clipPath id="SVGID_4_"><use xlink:href="#SVGID_3_" style="overflow:visible;"/></clipPath><g class="st2"><path class="st3" d="M70.5,49.1c-0.3-0.1-0.5-0.1-0.8-0.2l-0.4-11.4l-0.2-6.9h1.3l0.1,6.9L70.5,49.1z"/></g></g><g><defs><rect id="SVGID_5_" x="61.8" y="24.4" width="16.6" height="17.9"/></defs><clipPath id="SVGID_6_"><use xlink:href="#SVGID_5_" style="overflow:visible;"/></clipPath><g class="st4"><path class="st5" d="M72.4,30.7l-0.2,6.9h-2.9l-0.2-6.9H72.4z"/></g></g><g><defs><rect id="SVGID_7_" x="61.8" y="24.4" width="16.6" height="17.9"/></defs><clipPath id="SVGID_8_"><use xlink:href="#SVGID_7_" style="overflow:visible;"/></clipPath><g class="st6"><path class="st7" d="M70.4,37.5h-1.1l-0.2-6.9h1.3L70.4,37.5z"/></g></g><g><defs><rect id="SVGID_9_" x="61.8" y="24.4" width="16.6" height="17.9"/></defs><clipPath id="SVGID_10_"><use xlink:href="#SVGID_9_" style="overflow:visible;"/></clipPath><g class="st8"><path class="st9" d="M78.4,28.5v19.7c-0.9,0.5-1.9,0.8-3,1c-0.4,0.1-0.9,0.1-1.3,0.2V28.5l1.2-2.3l0.7-1.4l0.2-0.4l0.3,0.5      l0.6,1.2L78.4,28.5z"/></g></g><g><defs><rect id="SVGID_11_" x="61.8" y="24.4" width="16.6" height="17.9"/></defs><clipPath id="SVGID_12_"><use xlink:href="#SVGID_11_" style="overflow:visible;"/></clipPath><g class="st10"><path class="st11" d="M76.2,24.4l-0.1,0.4L75.4,29v20.1c-0.4,0.1-0.9,0.1-1.3,0.2V28.5l1.2-2.3l0.7-1.4L76.2,24.4z"/></g></g><g><defs><rect id="SVGID_13_" x="61.8" y="24.4" width="16.6" height="17.9"/></defs><clipPath id="SVGID_14_"><use xlink:href="#SVGID_13_" style="overflow:visible;"/></clipPath><g class="st12"><path class="st9" d="M67,24.4v23.5c-0.1,0-0.2-0.1-0.3-0.1c-0.4-0.2-0.8-0.5-1.2-0.7c-1.6-1.2-2.9-2.7-3.9-4.5V24.4H67z"/></g></g><g><defs><rect id="SVGID_15_" x="61.8" y="24.4" width="16.6" height="17.9"/></defs><clipPath id="SVGID_16_"><use xlink:href="#SVGID_15_" style="overflow:visible;"/></clipPath><g class="st13"><g><path class="st14" d="M64.8,25.8H67v0.7h-2.2V25.8z"/></g><g><path class="st14" d="M64.8,28.2H67v0.7h-2.2V28.2z"/></g><g><path class="st14" d="M64.8,30.5H67v0.7h-2.2V30.5z"/></g><g><path class="st14" d="M64.8,32.9H67v0.7h-2.2V32.9z"/></g><g><path class="st14" d="M64.8,35.2H67V36h-2.2V35.2z"/></g><g><path class="st14" d="M64.8,37.6H67v0.7h-2.2V37.6z"/></g><g><path class="st14" d="M64.8,40H67v0.7h-2.2V40z"/></g><g><path class="st14" d="M64.8,42.3H67v0.7h-2.2V42.3z"/></g><g><path class="st14" d="M64.8,44.7H67v0.7h-2.2V44.7z"/></g><g><path class="st14" d="M67,47v0.7h-0.2c-0.4-0.2-0.8-0.5-1.2-0.7H67z"/></g></g></g><g><defs><rect id="SVGID_17_" x="61.8" y="24.4" width="16.6" height="17.9"/></defs><clipPath id="SVGID_18_"><use xlink:href="#SVGID_17_" style="overflow:visible;"/></clipPath><g class="st15"><path class="st16" d="M72.9,29.1c0,0.1,0,0.1,0,0.2c-0.1,2.7-4.2,2.7-4.3,0c0-0.1,0-0.1,0-0.2c0-0.9,0.2-1.7,0.5-2.4      c0.4-0.9,1-1.7,1.7-2.3C72.1,25.6,72.9,27.2,72.9,29.1z"/></g></g><g><defs><rect id="SVGID_19_" x="61.8" y="24.4" width="16.6" height="17.9"/></defs><clipPath id="SVGID_20_"><use xlink:href="#SVGID_19_" style="overflow:visible;"/></clipPath><g class="st17"><path class="st18" d="M70.7,31.4c-1.1,0-2.1-0.7-2.1-2.1c0-0.1,0-0.1,0-0.2c0-0.9,0.2-1.7,0.5-2.4c0.4-0.9,1-1.7,1.7-2.3      c-0.2,0.6-0.4,1.4-0.5,2.3c-0.1,0.7-0.1,1.5-0.1,2.4c0,0.1,0,0.1,0,0.2C70.1,30.7,70.4,31.4,70.7,31.4z"/></g></g><g><defs><rect id="SVGID_21_" x="61.8" y="24.4" width="16.6" height="17.9"/></defs><clipPath id="SVGID_22_"><use xlink:href="#SVGID_21_" style="overflow:visible;"/></clipPath><g class="st19"><path class="st20" d="M72.9,29.1c-1.7,0.7-1.9-1.7-2.7-1c0,0,0,0,0,0c-0.7,0.7-1.5,0-1.1-1.5c0.4-0.9,1-1.7,1.7-2.3      C72.1,25.6,72.9,27.2,72.9,29.1z"/></g></g><g><defs><rect id="SVGID_23_" x="61.8" y="24.4" width="16.6" height="17.9"/></defs><clipPath id="SVGID_24_"><use xlink:href="#SVGID_23_" style="overflow:visible;"/></clipPath><g class="st21"><path class="st14" d="M70.7,24.4c-0.2,0.6-0.4,1.4-0.5,2.3c-0.1,0.5-0.1,1-0.1,1.5c-0.7,0.7-1.5,0-1.1-1.5      C69.5,25.8,70,25.1,70.7,24.4z"/></g></g><g><defs><rect id="SVGID_25_" x="61.8" y="24.4" width="16.6" height="17.9"/></defs><clipPath id="SVGID_26_"><use xlink:href="#SVGID_25_" style="overflow:visible;"/></clipPath><g class="st22"><path class="st16" d="M78.4,28.5C77.8,28.8,77,29,76.3,29c-0.3,0-0.6,0-0.8-0.1c-0.5-0.1-0.9-0.2-1.3-0.5l2.1-4.1l0,0L78.4,28.5      z"/></g></g><g><defs><rect id="SVGID_27_" x="61.8" y="24.4" width="16.6" height="17.9"/></defs><clipPath id="SVGID_28_"><use xlink:href="#SVGID_27_" style="overflow:visible;"/></clipPath><g class="st23"><path class="st18" d="M76.3,24.4L75.4,29c-0.5-0.1-0.9-0.2-1.3-0.5L76.3,24.4L76.3,24.4z"/></g></g><g><defs><rect id="SVGID_29_" x="61.8" y="24.4" width="16.6" height="17.9"/></defs><clipPath id="SVGID_30_"><use xlink:href="#SVGID_29_" style="overflow:visible;"/></clipPath><g class="st24"><path class="st25" d="M77.2,26.2c-0.3,0.1-0.6,0.2-0.9,0.2c-0.1,0-0.2,0-0.4,0c-0.2,0-0.4-0.1-0.6-0.2l0.9-1.7L77.2,26.2z"/></g></g><g><g><path class="st26" d="M76.3,24.4l-0.4,1.9c-0.2,0-0.4-0.1-0.6-0.2L76.3,24.4z"/></g></g></g><title/><g><rect x="32.6" y="44.3" class="st9" width="48.7" height="25"/></g><g><path class="st14" d="M80.2,40.1H34c-0.7,0-1.3,0.6-1.3,1.3v3.2h48.7v-3.2C81.4,40.6,80.9,40.1,80.2,40.1z"/></g><g><path class="st27" d="M64.5,62h-4.2c-0.5,0-1-0.4-1-1v-4.2c0-0.5,0.4-1,1-1h4.2c0.5,0,1,0.4,1,1V61C65.5,61.6,65,62,64.5,62z"/></g><g><path class="st3" d="M71.5,52.9h-4.2c-0.5,0-1-0.4-1-1v-4.2c0-0.5,0.4-1,1-1h4.2c0.5,0,1,0.4,1,1v4.2    C72.5,52.4,72.1,52.9,71.5,52.9z"/></g><g><path class="st25" d="M46.2,67.6H42c-0.5,0-1-0.4-1-1v-4.2c0-0.5,0.4-1,1-1h4.2c0.5,0,1,0.4,1,1v4.2    C47.2,67.1,46.7,67.6,46.2,67.6z"/></g><g><g><circle class="st28" cx="35.3" cy="42.3" r="0.6"/></g><g><circle class="st29" cx="37.4" cy="42.3" r="0.6"/></g><g><circle class="st30" cx="39.6" cy="42.3" r="0.6"/></g></g><g><path class="st14" d="M60.9,77h-6.1c-0.8,0-1.4-0.6-1.4-1.4v-6.1c0-0.8,0.6-1.4,1.4-1.4h6.1c0.8,0,1.4,0.6,1.4,1.4v6.1    C62.4,76.3,61.7,77,60.9,77z"/></g><g><g><g><g><rect x="66.1" y="49.5" class="st20" width="0.2" height="0.6"/></g><g><path class="st20" d="M65.4,50H65v-0.6h0.4V50z M64.3,50h-0.4v-0.6h0.4V50z M63.1,50h-0.4v-0.6h0.4V50z M62,50h-0.4v-0.6H62V50       z M60.9,50h-0.4v-0.6h0.4V50z"/></g><g><polygon class="st20" points="59.8,50 59.5,50 59.5,50 59.3,50 59.3,49.5 59.8,49.5 59.8,49.8 59.8,49.8 59.8,50 59.8,50             "/></g><g><path class="st20" d="M59.8,52.3h-0.6v-0.4h0.6V52.3z M59.8,51.1h-0.6v-0.4h0.6V51.1z"/></g><g><polygon class="st20" points="59.8,53.6 59.3,53.6 59.3,53.3 59.3,53.3 59.3,53.1 59.3,53.1 59.3,53 59.5,53 59.5,53.1        59.8,53.1      "/></g><g><path class="st20" d="M58.6,53.6h-0.4V53h0.4V53.6z M57.5,53.6h-0.4V53h0.4V53.6z M56.4,53.6H56V53h0.4V53.6z M55.3,53.6h-0.4       V53h0.4V53.6z M54.2,53.6h-0.4V53h0.4V53.6z"/></g><g><rect x="52.9" y="53" class="st20" width="0.2" height="0.6"/></g></g></g><g><g><g><rect x="58.9" y="58.6" class="st20" width="0.2" height="0.6"/></g><g><path class="st20" d="M58.2,59.2h-0.4v-0.6h0.4V59.2z M57.1,59.2h-0.4v-0.6h0.4V59.2z M55.9,59.2h-0.4v-0.6h0.4V59.2z        M54.8,59.2h-0.4v-0.6h0.4V59.2z M53.7,59.2h-0.4v-0.6h0.4V59.2z"/></g><g><polygon class="st20" points="52.6,59.2 52.1,59.2 52.1,58.7 52.3,58.7 52.3,58.6 52.6,58.6 52.6,58.7 52.6,58.7 52.6,58.9        52.6,58.9      "/></g><g><path class="st20" d="M52.6,58h-0.6v-0.4h0.6V58z M52.6,56.9h-0.6v-0.4h0.6V56.9z M52.6,55.8h-0.6v-0.4h0.6V55.8z M52.6,54.6       h-0.6v-0.4h0.6V54.6z"/></g><g><polygon class="st20" points="52.3,53.6 52.1,53.6 52.1,53.5 52.1,53.5 52.1,53.3 52.1,53.3 52.1,53 52.6,53 52.6,53.5        52.3,53.5      "/></g><g><path class="st20" d="M51.4,53.6H51V53h0.4V53.6z M50.3,53.6h-0.4V53h0.4V53.6z M49.2,53.6h-0.4V53h0.4V53.6z M48.1,53.6h-0.4       V53h0.4V53.6z M47,53.6h-0.4V53H47V53.6z M45.9,53.6h-0.4V53h0.4V53.6z M44.8,53.6h-0.4V53h0.4V53.6z M43.7,53.6h-0.4V53h0.4       V53.6z"/></g><g><rect x="42.3" y="53" class="st20" width="0.2" height="0.6"/></g></g></g><g><g><g><rect x="62.4" y="62.2" class="st20" width="0.6" height="0.2"/></g><g><rect x="62.4" y="63.2" class="st20" width="0.6" height="0.5"/></g><g><polygon class="st20" points="63,65 62.5,65 62.5,64.7 62.4,64.7 62.4,64.5 62.5,64.5 62.5,64.4 62.7,64.4 62.7,64.5 63,64.5             "/></g><g><path class="st20" d="M48.1,65l0-0.6l0.4,0l0,0.6L48.1,65z M49.3,65l0-0.6l0.4,0l0,0.6L49.3,65z M50.5,65l0-0.6l0.4,0l0,0.6       L50.5,65z M51.7,65l0-0.6l0.4,0l0,0.6L51.7,65z M52.9,65l0-0.6l0.4,0l0,0.6L52.9,65z M54.1,65l0-0.6l0.4,0l0,0.6L54.1,65z        M55.3,65l0-0.6l0.4,0l0,0.6L55.3,65z M56.5,65l0-0.6l0.4,0l0,0.6L56.5,65z M57.7,65l0-0.6l0.4,0l0,0.6L57.7,65z M58.9,65       l0-0.6l0.4,0l0,0.6L58.9,65z M60.1,65l0-0.6l0.4,0l0,0.6L60.1,65z M61.3,65l0-0.6l0.4,0l0,0.6L61.3,65z"/></g><g><rect x="47.2" y="64.4" class="st20" width="0.2" height="0.6"/></g></g></g><g><g><g><rect x="53.2" y="72.1" class="st20" width="0.2" height="0.6"/></g><g><path class="st20" d="M52.5,72.7h-0.4v-0.6h0.4V72.7z M51.3,72.7h-0.4v-0.6h0.4V72.7z M50.2,72.7h-0.4v-0.6h0.4V72.7z M49,72.7       h-0.4v-0.6H49V72.7z M47.8,72.7h-0.4v-0.6h0.4V72.7z M46.6,72.7h-0.4v-0.6h0.4V72.7z M45.5,72.7H45v-0.6h0.4V72.7z"/></g><g><polygon class="st20" points="44.3,72.7 43.8,72.7 43.8,72.2 44.1,72.2 44.1,72.1 44.3,72.1 44.3,72.2 44.4,72.2 44.4,72.4        44.3,72.4      "/></g><g><path class="st20" d="M44.4,71.4h-0.6v-0.5h0.6V71.4z M44.4,70.2h-0.6v-0.5h0.6V70.2z M44.4,68.9h-0.6v-0.5h0.6V68.9z"/></g><g><rect x="43.8" y="67.5" class="st20" width="0.6" height="0.2"/></g></g></g></g><g><g><path class="st14" d="M35.8,54.8c0.7,1.5,2.4,2.3,4,1.9s2.8-1.8,2.8-3.4s-1.1-3.1-2.8-3.4c-1.6-0.4-3.3,0.4-4,1.9V54.8z"/></g><g><path class="st20" d="M34.7,49.2c0-0.1,0.1-0.3,0.2-0.4c2.2-2.1,5.7-2.2,8-0.3c0.1,0.1,0.2,0.3,0.2,0.5c0,0.2-0.2,0.3-0.3,0.4     c-0.2,0.1-0.4,0-0.5-0.1c-2-1.6-4.8-1.5-6.7,0.2c-0.1,0.1-0.4,0.2-0.5,0.1C34.8,49.6,34.7,49.4,34.7,49.2z"/></g><g><path class="st20" d="M36,58.2c0-0.2,0.1-0.3,0.2-0.4c0.1-0.1,0.3-0.1,0.5,0c1.8,0.9,4,0.7,5.5-0.6c0.1-0.1,0.3-0.2,0.5-0.1     c0.2,0.1,0.3,0.2,0.3,0.4c0,0.2,0,0.4-0.2,0.5c-1.9,1.5-4.5,1.8-6.6,0.7C36.1,58.6,36,58.4,36,58.2z"/></g><g><path class="st16" d="M28.8,63.9h-8c0,0-2.7,0-4.3-1.7c-0.2-0.2-0.4-0.3-0.7-0.3h-1.5c-0.6,0-1-0.4-1-1v-8.1c0-0.6,0.4-1,1-1h0.2     c0.8,0,1.6-0.3,2.1-0.9c1-1,2.6-2.5,4.2-3.1c2.5-1,6.1-3,7.1-4c1-1,2,0,2,1s-2,3-3.5,4c-0.5,0.3-0.9,0.7-1.3,1.1     c-0.2,0.2-0.3,0.6-0.2,0.9c0.1,0.3,0.3,0.6,0.7,0.7c0.6,0.2,1.3,0.3,1.9,0.3H39c0.6,0,1.2,0.4,1.4,1c0.1,0.2,0.1,0.3,0.1,0.5     c0,0.8-0.7,1.5-1.5,1.5h-6.1c0.6,0,1.2,0.4,1.4,1c0.1,0.2,0.1,0.3,0.1,0.5c0,0.8-0.7,1.5-1.5,1.5h-1.5c0.4,0,0.8,0.2,1.1,0.4     c0.2,0.2,0.3,0.3,0.4,0.6c0.1,0.2,0.1,0.3,0.1,0.5c0,0.8-0.7,1.5-1.5,1.5h-2.5c0.4,0,0.8,0.2,1.1,0.4c0.2,0.2,0.3,0.3,0.4,0.6     c0.1,0.2,0.1,0.4,0.1,0.6C30.3,63.3,29.6,63.9,28.8,63.9z"/></g><g><g><path class="st18" d="M40.5,53.3c0-0.2,0-0.3-0.1-0.5c-0.2-0.6-0.8-1-1.4-1H27.4c-0.6,0-1.3-0.1-1.9-0.3      c-0.2-0.1-0.4-0.2-0.6-0.4c-0.2,0.3-0.2,0.6-0.1,0.9c0.1,0.3,0.3,0.5,0.6,0.6c0.6,0.2,1.3,0.3,1.9,0.3H39c0.6,0,1.2,0.4,1.4,1      C40.5,53.6,40.5,53.5,40.5,53.3z"/></g><g><path class="st18" d="M34.4,55.8c-0.2-0.6-0.8-1-1.4-1h-4.5c-0.3,0-0.5,0.2-0.5,0.5s0.2,0.5,0.5,0.5h4.5c0.6,0,1.2,0.4,1.4,1      C34.5,56.5,34.5,56.1,34.4,55.8z"/></g><g><path class="st18" d="M32.8,58.8c-0.1-0.2-0.2-0.4-0.4-0.6c-0.3-0.3-0.7-0.4-1.1-0.4h-3c-0.3,0-0.5,0.2-0.5,0.5s0.2,0.5,0.5,0.5      h3c0.6,0,1.2,0.4,1.4,1C33,59.5,33,59.2,32.8,58.8z"/></g><g><path class="st18" d="M30.4,62.4c0-0.2,0-0.3-0.1-0.5c-0.1-0.2-0.2-0.4-0.4-0.6c-0.3-0.3-0.7-0.4-1.1-0.4h-1      c-0.3,0-0.5,0.2-0.5,0.5s0.2,0.5,0.5,0.5h1c0.6,0,1.2,0.4,1.4,1C30.4,62.7,30.4,62.5,30.4,62.4z"/></g></g></g><g><g><circle class="st5" cx="77.2" cy="66.5" r="7.9"/></g><g><g><path class="st16" d="M79.9,65.4c0,1.4-1.2,2.6-2.6,2.6c-1.4,0-2.6-1.2-2.6-2.6s1.2-2.6,2.6-2.6C78.7,62.8,79.9,63.9,79.9,65.4z      "/></g><g><path class="st14" d="M77.3,68c-2.1,0-3.9,1.7-3.9,3.9v1.5c2.4,1.4,5.4,1.4,7.7,0v-1.5C81.2,69.7,79.4,68,77.3,68z"/></g><g><path class="st1" d="M87.6,66h-2c-0.3-4.1-3.6-7.4-7.7-7.7v-2h-1.3v2c-4.1,0.3-7.4,3.6-7.7,7.7h-2v1.3h2      c0.3,4.1,3.6,7.4,7.7,7.7v2h1.3v-2c4.1-0.3,7.4-3.6,7.7-7.7h2V66z M82,72c-1.1,1-2.6,1.6-4.1,1.8v-1.3h-1.3v1.3      c-3.4-0.3-6.1-3-6.4-6.4h1.3V66h-1.3c0.3-3.4,3-6.1,6.4-6.4v1.3H78v-1.3c3.4,0.3,6.1,3,6.4,6.4h-1.3v1.3h1.3      C84.2,69.1,83.4,70.8,82,72L82,72z"/></g></g></g><g><g><path class="st7" d="M30.4,24.4h25.4v9.2H30.4L30.4,24.4L30.4,24.4z"/></g><g><g><path class="st3" d="M33.1,25.8h9.9v0.7h-9.9V25.8z"/></g><g><path class="st31" d="M33.1,27.7h18.1v0.7H33.1V27.7z"/></g><g><path class="st31" d="M33.1,29.6h18.1v0.7H33.1V29.6z"/></g><g><path class="st31" d="M33.1,31.5h13.8v0.7H33.1V31.5z"/></g></g></g><g><g><path class="st5" d="M18.9,32.1h17.8V39H18.9V32.1z"/></g><g><g><path class="st25" d="M21.3,33.6h7.1v0.7h-7.1V33.6z"/></g><g><path class="st7" d="M21.3,35.2h13.1v0.7H21.3V35.2z"/></g><g><path class="st7" d="M21.3,36.8h9.1v0.7h-9.1V36.8z"/></g></g></g></g></svg>